<?xml version="1.0" encoding="UTF-8"?>
<svg id="Ebene_1" xmlns="http://www.w3.org/2000/svg" version="1.1" viewBox="0 0 100 19.68">
  <!-- Generator: Adobe Illustrator 29.0.1, SVG Export Plug-In . SVG Version: 2.1.0 Build 192)  -->
  <defs>
    <style>
      .st0 {
        fill: #fff;
      }

      .st1 {
        fill: #dfff80;
      }
    </style>
  </defs>
  <path class="st1" d="M0,18.6V0h4.46v2.09h-2.37v14.43h2.37v2.09H0Z"/>
  <path class="st0" d="M10.69,16.14c-1.3,0-2.35-.48-3.15-1.42-.8-.95-1.19-2.2-1.19-3.74,0-1.44.43-2.66,1.3-3.66.87-1,1.92-1.5,3.16-1.5.87,0,1.65.22,2.34.65v-3.8h2.09v13.29h-2.09v-.7c-.73.59-1.55.89-2.45.89ZM8.43,10.97c0,.92.21,1.67.63,2.23.42.56.96.84,1.63.84s1.25-.31,1.73-.94c.48-.62.72-1.38.72-2.27v-1.06c-.16-.59-.45-1.06-.86-1.39s-.9-.49-1.48-.49c-.66,0-1.22.3-1.68.9-.46.6-.69,1.33-.69,2.17Z"/>
  <path class="st0" d="M25.74,19.68c-1.08,0-1.96-.29-2.67-.87-.63-.52-1.06-1.22-1.29-2.1h2.18s.05.1.08.14c.34.59.91.88,1.7.88.55,0,1.01-.22,1.41-.65.39-.43.59-.95.59-1.56v-.28c-.73.59-1.55.89-2.45.89-1.3,0-2.35-.48-3.15-1.42-.8-.95-1.19-2.2-1.19-3.74,0-1.44.43-2.66,1.3-3.66.87-1,1.92-1.5,3.16-1.5.87,0,1.65.22,2.34.65v-.46h2.09v9.52c0,1.15-.4,2.13-1.19,2.94s-1.76,1.22-2.89,1.22ZM23.03,10.97c0,.92.21,1.67.63,2.23.42.56.96.84,1.63.84s1.25-.31,1.73-.94c.48-.62.72-1.38.72-2.27v-1.06c-.16-.59-.45-1.06-.86-1.39s-.9-.49-1.48-.49c-.66,0-1.22.3-1.68.9-.46.6-.69,1.33-.69,2.17Z"/>
  <path class="st0" d="M31.89,2.74h2.09v2.09h-2.09v-2.09ZM31.89,15.95V6h2.09v9.95h-2.09Z"/>
  <rect class="st0" x="52.39" y="2.66" width="2.09" height="13.29"/>
  <path class="st0" d="M37.3,15.95v-7.86h-1.97v-2.09h1.97v-1.99s2.09-1.27,2.09-1.27v3.27h2.16v2.09h-2.16v7.86h-2.09Z"/>
  <path class="st0" d="M45.35,16.14c-.99,0-1.78-.28-2.38-.84-.6-.56-.9-1.29-.9-2.2,0-.84.32-1.55.94-2.15.63-.6,1.38-.89,2.27-.89h1.14c.43,0,.82-.1,1.16-.29s.58-.45.72-.75c-.14-.39-.38-.7-.71-.92-.34-.22-.74-.33-1.21-.33-.43,0-.82.12-1.18.37-.35.25-.61.56-.78.94h-1.99c.17-.91.62-1.68,1.37-2.31.74-.63,1.6-.95,2.58-.95,1.2,0,2.17.37,2.91,1.11.73.74,1.1,1.72,1.1,2.93v6.09h-1.98s-.02-.68-.02-.91c-.87.73-1.89,1.1-3.04,1.1ZM44.15,13.1c0,.33.11.59.33.79.22.2.51.29.86.29.85,0,1.57-.26,2.16-.79.6-.52.89-1.17.89-1.95-.59.38-1.26.57-1.99.57h-1.14c-.32,0-.58.11-.8.31-.22.21-.32.47-.32.77Z"/>
  <path class="st0" d="M69.34,16.14c-1.39,0-2.51-.48-3.36-1.42s-1.27-2.2-1.27-3.74c0-1.42.43-2.63,1.3-3.64.87-1.01,1.91-1.52,3.14-1.52,1.34,0,2.42.48,3.24,1.45.82.97,1.22,2.24,1.22,3.82,0,.28,0,.49-.02.63h-6.8c.13.73.42,1.32.86,1.76.45.43,1.01.65,1.68.65.77,0,1.42-.34,1.95-1.01h2.18c-.35.9-.9,1.63-1.65,2.18-.75.56-1.58.84-2.49.84ZM66.93,9.76h4.5c-.18-.61-.47-1.08-.86-1.42-.4-.34-.87-.51-1.41-.51-.49,0-.94.18-1.35.53s-.7.82-.87,1.4Z"/>
  <path class="st0" d="M89.2,16.14c-.87,0-1.65-.22-2.34-.65v3.87h-2.09V6h2.09v.7c.73-.59,1.55-.89,2.45-.89,1.3,0,2.35.47,3.14,1.42.79.95,1.19,2.2,1.19,3.74,0,1.44-.43,2.66-1.29,3.66-.86,1-1.91,1.5-3.15,1.5ZM86.86,12.17c.16.59.45,1.06.86,1.39s.9.49,1.48.49c.66,0,1.22-.3,1.67-.89.46-.59.68-1.32.68-2.18,0-.92-.21-1.67-.62-2.23-.41-.56-.95-.84-1.62-.84s-1.26.31-1.74.93-.71,1.38-.71,2.28v1.06Z"/>
  <path class="st1" d="M100,0v18.6h-4.46v-2.09h2.37V2.09h-2.37V0h4.46Z"/>
  <path class="st0" d="M17.29,2.74h2.09v2.09h-2.09v-2.09ZM17.29,15.95V6h2.09v9.95h-2.09Z"/>
  <rect class="st0" x="60.98" y="2.66" width="2.09" height="13.29"/>
  <path class="st0" d="M77.79,16.14c-.99,0-1.78-.28-2.38-.84-.6-.56-.9-1.29-.9-2.2,0-.84.32-1.55.94-2.15.63-.6,1.38-.89,2.27-.89h1.14c.43,0,.82-.1,1.16-.29s.58-.45.72-.75c-.14-.39-.38-.7-.71-.92-.34-.22-.74-.33-1.21-.33-.43,0-.82.12-1.18.37-.35.25-.61.56-.78.94h-1.99c.17-.91.62-1.68,1.37-2.31.74-.63,1.6-.95,2.58-.95,1.2,0,2.17.37,2.91,1.11.73.74,1.1,1.72,1.1,2.93v6.09h-1.98s-.02-.68-.02-.91c-.87.73-1.89,1.1-3.04,1.1ZM76.59,13.1c0,.33.11.59.33.79.22.2.51.29.86.29.85,0,1.57-.26,2.16-.79.6-.52.89-1.17.89-1.95-.59.38-1.26.57-1.99.57h-1.14c-.32,0-.58.11-.8.31-.22.21-.32.47-.32.77Z"/>
</svg>